<mxfile host="app.diagrams.net" agent="Mozilla/5.0 (Windows NT 10.0; Win64; x64) AppleWebKit/537.36 (KHTML, like Gecko) Chrome/131.0.0.0 Safari/537.36" version="24.9.2">
  <diagram name="Page-1" id="gtkJ1LqGMHD-RAf70cmw">
    <mxGraphModel dx="954" dy="639" grid="1" gridSize="10" guides="1" tooltips="1" connect="1" arrows="1" fold="1" page="1" pageScale="1" pageWidth="850" pageHeight="1100" math="0" shadow="0">
      <root>
        <mxCell id="0" />
        <mxCell id="1" parent="0" />
        <mxCell id="JAQ5Fm4PAG8C0AydVl1c-23" value="" style="edgeStyle=orthogonalEdgeStyle;rounded=0;orthogonalLoop=1;jettySize=auto;html=1;" edge="1" parent="1" source="JAQ5Fm4PAG8C0AydVl1c-1" target="JAQ5Fm4PAG8C0AydVl1c-22">
          <mxGeometry relative="1" as="geometry">
            <Array as="points">
              <mxPoint x="460" y="230" />
              <mxPoint x="80" y="230" />
            </Array>
          </mxGeometry>
        </mxCell>
        <mxCell id="JAQ5Fm4PAG8C0AydVl1c-26" value="" style="edgeStyle=orthogonalEdgeStyle;rounded=0;orthogonalLoop=1;jettySize=auto;html=1;" edge="1" parent="1" source="JAQ5Fm4PAG8C0AydVl1c-1" target="JAQ5Fm4PAG8C0AydVl1c-25">
          <mxGeometry relative="1" as="geometry">
            <Array as="points">
              <mxPoint x="460" y="230" />
              <mxPoint x="240" y="230" />
            </Array>
          </mxGeometry>
        </mxCell>
        <mxCell id="JAQ5Fm4PAG8C0AydVl1c-28" value="" style="edgeStyle=orthogonalEdgeStyle;rounded=0;orthogonalLoop=1;jettySize=auto;html=1;" edge="1" parent="1" source="JAQ5Fm4PAG8C0AydVl1c-1" target="JAQ5Fm4PAG8C0AydVl1c-27">
          <mxGeometry relative="1" as="geometry">
            <Array as="points">
              <mxPoint x="460" y="230" />
              <mxPoint x="390" y="230" />
            </Array>
          </mxGeometry>
        </mxCell>
        <mxCell id="JAQ5Fm4PAG8C0AydVl1c-30" value="" style="edgeStyle=orthogonalEdgeStyle;rounded=0;orthogonalLoop=1;jettySize=auto;html=1;" edge="1" parent="1" source="JAQ5Fm4PAG8C0AydVl1c-1" target="JAQ5Fm4PAG8C0AydVl1c-29">
          <mxGeometry relative="1" as="geometry">
            <Array as="points">
              <mxPoint x="460" y="230" />
              <mxPoint x="540" y="230" />
            </Array>
          </mxGeometry>
        </mxCell>
        <mxCell id="JAQ5Fm4PAG8C0AydVl1c-32" value="" style="edgeStyle=orthogonalEdgeStyle;rounded=0;orthogonalLoop=1;jettySize=auto;html=1;" edge="1" parent="1" source="JAQ5Fm4PAG8C0AydVl1c-1" target="JAQ5Fm4PAG8C0AydVl1c-31">
          <mxGeometry relative="1" as="geometry">
            <Array as="points">
              <mxPoint x="460" y="230" />
              <mxPoint x="690" y="230" />
            </Array>
          </mxGeometry>
        </mxCell>
        <mxCell id="JAQ5Fm4PAG8C0AydVl1c-34" value="" style="edgeStyle=orthogonalEdgeStyle;rounded=0;orthogonalLoop=1;jettySize=auto;html=1;" edge="1" parent="1" source="JAQ5Fm4PAG8C0AydVl1c-1" target="JAQ5Fm4PAG8C0AydVl1c-33">
          <mxGeometry relative="1" as="geometry">
            <Array as="points">
              <mxPoint x="460" y="230" />
              <mxPoint x="840" y="230" />
            </Array>
          </mxGeometry>
        </mxCell>
        <mxCell id="JAQ5Fm4PAG8C0AydVl1c-1" value="&lt;font style=&quot;font-size: 18px;&quot;&gt;Landing Page&lt;/font&gt;" style="rounded=0;whiteSpace=wrap;html=1;" vertex="1" parent="1">
          <mxGeometry x="400" y="120" width="120" height="60" as="geometry" />
        </mxCell>
        <mxCell id="JAQ5Fm4PAG8C0AydVl1c-22" value="&lt;font style=&quot;font-size: 18px;&quot;&gt;Home&lt;/font&gt;" style="rounded=0;whiteSpace=wrap;html=1;" vertex="1" parent="1">
          <mxGeometry x="20" y="270" width="120" height="60" as="geometry" />
        </mxCell>
        <mxCell id="JAQ5Fm4PAG8C0AydVl1c-25" value="&lt;font style=&quot;font-size: 18px;&quot;&gt;About&lt;/font&gt;" style="rounded=0;whiteSpace=wrap;html=1;" vertex="1" parent="1">
          <mxGeometry x="180" y="270" width="120" height="60" as="geometry" />
        </mxCell>
        <mxCell id="JAQ5Fm4PAG8C0AydVl1c-37" value="" style="edgeStyle=orthogonalEdgeStyle;rounded=0;orthogonalLoop=1;jettySize=auto;html=1;" edge="1" parent="1" source="JAQ5Fm4PAG8C0AydVl1c-27" target="JAQ5Fm4PAG8C0AydVl1c-36">
          <mxGeometry relative="1" as="geometry">
            <Array as="points">
              <mxPoint x="390" y="400" />
            </Array>
          </mxGeometry>
        </mxCell>
        <mxCell id="JAQ5Fm4PAG8C0AydVl1c-53" value="" style="edgeStyle=orthogonalEdgeStyle;rounded=0;orthogonalLoop=1;jettySize=auto;html=1;" edge="1" parent="1" source="JAQ5Fm4PAG8C0AydVl1c-27" target="JAQ5Fm4PAG8C0AydVl1c-52">
          <mxGeometry relative="1" as="geometry">
            <Array as="points">
              <mxPoint x="390" y="500" />
            </Array>
          </mxGeometry>
        </mxCell>
        <mxCell id="JAQ5Fm4PAG8C0AydVl1c-27" value="&lt;font style=&quot;font-size: 18px;&quot;&gt;Membership&lt;/font&gt;" style="rounded=0;whiteSpace=wrap;html=1;" vertex="1" parent="1">
          <mxGeometry x="330" y="270" width="120" height="60" as="geometry" />
        </mxCell>
        <mxCell id="JAQ5Fm4PAG8C0AydVl1c-29" value="&lt;span style=&quot;font-size: 18px;&quot;&gt;Client&lt;/span&gt;" style="rounded=0;whiteSpace=wrap;html=1;" vertex="1" parent="1">
          <mxGeometry x="480" y="270" width="120" height="60" as="geometry" />
        </mxCell>
        <mxCell id="JAQ5Fm4PAG8C0AydVl1c-43" value="" style="edgeStyle=orthogonalEdgeStyle;rounded=0;orthogonalLoop=1;jettySize=auto;html=1;" edge="1" parent="1" source="JAQ5Fm4PAG8C0AydVl1c-31" target="JAQ5Fm4PAG8C0AydVl1c-42">
          <mxGeometry relative="1" as="geometry">
            <Array as="points">
              <mxPoint x="690" y="380" />
            </Array>
          </mxGeometry>
        </mxCell>
        <mxCell id="JAQ5Fm4PAG8C0AydVl1c-51" value="" style="edgeStyle=orthogonalEdgeStyle;rounded=0;orthogonalLoop=1;jettySize=auto;html=1;" edge="1" parent="1" source="JAQ5Fm4PAG8C0AydVl1c-31" target="JAQ5Fm4PAG8C0AydVl1c-50">
          <mxGeometry relative="1" as="geometry">
            <Array as="points">
              <mxPoint x="690" y="480" />
            </Array>
          </mxGeometry>
        </mxCell>
        <mxCell id="JAQ5Fm4PAG8C0AydVl1c-31" value="&lt;font style=&quot;font-size: 18px;&quot;&gt;Blogs&lt;/font&gt;" style="rounded=0;whiteSpace=wrap;html=1;" vertex="1" parent="1">
          <mxGeometry x="630" y="270" width="120" height="60" as="geometry" />
        </mxCell>
        <mxCell id="JAQ5Fm4PAG8C0AydVl1c-33" value="&lt;font style=&quot;font-size: 18px;&quot;&gt;Contact Us&lt;/font&gt;" style="rounded=0;whiteSpace=wrap;html=1;" vertex="1" parent="1">
          <mxGeometry x="780" y="270" width="120" height="60" as="geometry" />
        </mxCell>
        <mxCell id="JAQ5Fm4PAG8C0AydVl1c-35" value="Hear what our clients say!" style="text;html=1;align=center;verticalAlign=middle;whiteSpace=wrap;rounded=0;" vertex="1" parent="1">
          <mxGeometry x="510" y="240" width="120" height="30" as="geometry" />
        </mxCell>
        <mxCell id="JAQ5Fm4PAG8C0AydVl1c-36" value="&lt;font style=&quot;font-size: 18px;&quot;&gt;Standard&lt;/font&gt;" style="rounded=0;whiteSpace=wrap;html=1;" vertex="1" parent="1">
          <mxGeometry x="250" y="370" width="120" height="60" as="geometry" />
        </mxCell>
        <mxCell id="JAQ5Fm4PAG8C0AydVl1c-42" value="&lt;font style=&quot;font-size: 18px;&quot;&gt;Blogs&lt;/font&gt;" style="rounded=0;whiteSpace=wrap;html=1;" vertex="1" parent="1">
          <mxGeometry x="560" y="360" width="120" height="60" as="geometry" />
        </mxCell>
        <mxCell id="JAQ5Fm4PAG8C0AydVl1c-50" value="&lt;font style=&quot;font-size: 18px;&quot;&gt;Blog_2&lt;/font&gt;" style="rounded=0;whiteSpace=wrap;html=1;" vertex="1" parent="1">
          <mxGeometry x="560" y="450" width="120" height="60" as="geometry" />
        </mxCell>
        <mxCell id="JAQ5Fm4PAG8C0AydVl1c-52" value="&lt;font style=&quot;font-size: 18px;&quot;&gt;Membership&lt;/font&gt;" style="rounded=0;whiteSpace=wrap;html=1;" vertex="1" parent="1">
          <mxGeometry x="250" y="460" width="120" height="60" as="geometry" />
        </mxCell>
      </root>
    </mxGraphModel>
  </diagram>
</mxfile>
